# Blender v2.93.1 OBJ File: ''
# www.blender.org
mtllib longer_finger.mtl
o franka_finger_with_extension
v -0.002453 0.020413 0.014486
v -0.001890 0.020430 0.010119
v -0.001480 0.017754 0.011225
v -0.006908 0.020414 0.008280
v -0.004191 0.017414 0.008044
v -0.007748 0.017434 0.008519
v -0.009220 0.020413 0.011614
v -0.007373 0.020433 0.015602
v -0.004098 0.017531 0.015796
v -0.009103 0.017718 0.012743
v -0.007555 0.017414 0.015489
v 0.004519 0.020447 0.015528
v 0.006543 0.017415 0.016176
v 0.008972 0.017594 0.015050
v 0.010615 0.017316 0.011132
v 0.009547 0.020413 0.014486
v 0.008589 0.017413 0.008246
v 0.010438 0.020413 0.011614
v 0.007960 0.020414 0.008264
v 0.004776 0.017415 0.008277
v 0.003388 0.017415 0.014644
v 0.002611 0.017650 0.011261
v 0.003032 0.020434 0.010182
v 0.001819 0.009422 0.048205
v 0.000607 0.012805 0.044994
v 0.004238 0.009410 0.044730
v 0.009411 0.009508 0.050203
v -0.001960 0.009414 0.047296
v 0.007152 0.009431 0.053309
v -0.002938 0.009409 0.044208
v 0.009571 0.008021 0.035579
v 0.000753 0.009433 0.041511
v -0.008406 0.008044 0.035742
v 0.009317 0.014121 0.051215
v 0.009665 0.014109 0.035727
v 0.005409 0.014331 0.053832
v -0.007324 0.009524 0.052258
v 0.010937 0.016056 0.018873
v -0.008443 0.014105 0.035721
v -0.009780 0.025220 0.019188
v 0.011009 0.025253 0.019037
v -0.009753 0.025305 0.006144
v -0.009892 0.017036 0.017714
v -0.009793 0.017414 0.004770
v 0.010991 0.025262 0.006119
v 0.011108 0.017232 0.004730
v -0.004721 0.014302 0.053810
v -0.008069 0.014170 0.051234
v -0.009684 0.023166 0.004009
v -0.009698 0.019704 0.004000
v -0.004131 0.023087 0.003992
v 0.010912 0.019675 0.004000
v 0.010903 0.023166 0.004009
v 0.005346 0.023113 0.003990
v -0.009729 0.008029 0.003838
v -0.009889 0.010668 0.003808
v -0.009855 0.008072 0.001741
v -0.009855 0.020754 0.001741
v -0.009782 0.026304 0.000164
v -0.004924 0.021764 0.001864
v -0.004304 0.026315 0.001779
v -0.005957 0.020819 0.003997
v 0.005510 0.026345 0.001761
v -0.004229 0.026298 0.003838
v 0.005448 0.026252 0.003885
v 0.006144 0.021773 0.001854
v 0.011068 0.020803 0.001745
v 0.010822 0.010281 0.004018
v 0.007212 0.020795 0.003997
v -0.009766 0.011577 0.017773
v 0.011018 0.011617 0.017719
v -0.004442 0.005645 0.001900
v -0.005115 0.007191 0.003936
v -0.006546 0.007844 0.001900
v -0.009757 0.002524 0.000133
v -0.004266 0.002588 0.003875
v -0.004252 0.002482 0.001761
v 0.010998 0.026280 0.000133
v 0.010948 0.008029 0.003838
v 0.011074 0.008072 0.001741
v 0.007602 0.007813 0.001900
v 0.006058 0.007137 0.003967
v 0.010987 0.002535 0.000153
v 0.005484 0.002538 0.003825
v 0.005760 0.006139 0.001900
v 0.005471 0.002482 0.001761
v 0.001137 0.009245 0.047943
v 0.003127 0.013211 0.046343
v 0.001663 0.006710 0.047266
v 0.002917 0.006716 0.044521
v 0.001486 0.013244 0.042793
v -0.000343 0.006768 0.042741
v -0.001247 0.009297 0.042846
v -0.002464 0.009335 0.045131
v -0.003781 0.006831 0.045130
v -0.001721 0.006794 0.046288
v -0.001214 0.009329 0.047556
v -0.001639 0.006789 0.048826
v 0.009545 0.010612 0.036115
v 0.003235 0.009211 0.043821
v 0.003239 0.009208 0.046424
v 0.009572 0.010589 0.054115
v -0.009452 0.010942 0.036144
v -0.009425 0.010918 0.054143
v 0.001197 0.009249 0.042201
v -0.008447 0.009239 0.062664
v 0.009555 0.008857 0.062604
v 0.009550 0.007039 0.080566
v -0.008452 0.006844 0.082983
v -0.008484 0.003847 0.096133
v 0.009513 0.003535 0.096105
v 0.009470 0.001035 0.096102
v -0.008527 0.001347 0.096129
v 0.009407 0.001090 0.054102
v -0.008590 0.001402 0.054130
v 0.009442 0.003090 0.054105
v -0.009555 0.003419 0.054134
v -0.009582 0.003442 0.036134
v -0.001711 0.003299 0.041422
v -0.003842 0.003331 0.045126
v 0.002560 0.003225 0.041416
v 0.010415 0.003096 0.036104
v 0.004702 0.003183 0.045113
v 0.002571 0.003216 0.048815
v -0.001700 0.003290 0.048822
v 0.003301 0.013011 0.043826
v 0.002632 0.006715 0.048820
v -0.001650 0.006799 0.041427
v 0.002621 0.006725 0.041420
vn -0.1325 -0.0421 -0.9903
vn 0.7607 -0.1450 -0.6327
vn 0.3202 0.3590 -0.8767
vn 0.9715 0.2010 0.1260
vn -0.0016 1.0000 0.0037
vn 0.0026 1.0000 -0.0061
vn 0.2121 0.3015 0.9296
vn 0.8418 -0.2672 0.4690
vn -0.8993 0.1352 0.4158
vn -0.8690 0.0339 0.4936
vn -0.0873 -0.0320 0.9957
vn 0.1086 -0.9940 0.0137
vn -0.0036 -0.9999 0.0152
vn 0.0342 -0.9994 -0.0038
vn -0.1972 -0.9804 0.0026
vn -0.0026 1.0000 -0.0016
vn -0.9426 -0.1630 -0.2914
vn -0.8079 0.1828 -0.5602
vn 0.3568 0.4170 0.8360
vn 0.1301 -0.9837 0.1242
vn 0.2015 0.1525 0.9675
vn -0.0351 -0.9993 -0.0088
vn 0.9141 -0.1082 0.3908
vn 0.9551 0.0083 0.2963
vn 0.8131 0.1346 -0.5663
vn 0.0003 1.0000 0.0001
vn 0.7924 0.1695 -0.5860
vn -0.0081 0.0042 -1.0000
vn -0.0001 -1.0000 0.0002
vn -0.0005 -1.0000 -0.0001
vn -0.1533 -0.9876 -0.0334
vn -0.9349 0.2422 0.2594
vn -0.9314 0.2794 0.2334
vn 0.0064 1.0000 -0.0015
vn -0.4347 -0.0988 0.8952
vn -0.3379 0.3550 -0.8717
vn 0.0028 1.0000 -0.0032
vn -0.8090 -0.1019 -0.5789
vn -0.6310 -0.6409 -0.4371
vn 0.0088 -0.9999 0.0097
vn 0.1805 -0.6423 -0.7449
vn 0.0150 -0.9998 -0.0139
vn 0.0023 -1.0000 -0.0006
vn 0.6998 -0.6794 -0.2205
vn -0.0868 -0.9912 0.0998
vn -0.0946 -0.9909 0.0953
vn -0.5358 -0.6178 0.5756
vn 0.0009 -0.9725 0.2328
vn 0.9996 -0.0160 0.0225
vn 0.9998 0.0184 0.0091
vn 0.8050 -0.1114 0.5827
vn 0.5571 0.1103 0.8231
vn -0.0146 -0.9999 0.0063
vn 0.1221 -0.9892 0.0806
vn -0.0074 -0.9999 0.0141
vn 0.0837 -0.9909 0.1057
vn 0.4621 -0.6274 0.6268
vn 0.9972 -0.0172 0.0733
vn -0.0004 0.8299 0.5579
vn 0.0027 0.8315 0.5554
vn -0.0015 1.0000 0.0065
vn -0.9968 -0.0008 0.0801
vn 0.9972 -0.0091 0.0742
vn -1.0000 0.0054 -0.0020
vn 0.0021 1.0000 0.0007
vn -0.0002 1.0000 -0.0008
vn -0.9999 0.0150 -0.0072
vn -0.9968 -0.0058 0.0793
vn 0.9999 -0.0080 0.0114
vn 0.9999 0.0148 -0.0014
vn -0.0028 0.9989 -0.0477
vn -0.6099 0.0760 0.7889
vn -0.0019 -0.1068 0.9943
vn 0.0027 0.9971 -0.0759
vn -0.0714 -0.2728 0.9594
vn 0.0028 1.0000 -0.0042
vn -0.9870 -0.1412 0.0773
vn -0.9997 -0.0060 0.0241
vn -0.0052 -0.8950 -0.4460
vn -0.0182 -0.9005 -0.4346
vn -0.9993 0.0041 -0.0364
vn -0.9973 0.0174 -0.0712
vn 0.0079 0.7066 -0.7076
vn -0.0004 -0.3187 -0.9479
vn 0.9990 0.0027 -0.0443
vn -0.0044 0.7095 -0.7047
vn 0.9897 0.0382 -0.1377
vn 0.0006 0.7030 -0.7112
vn 0.0043 0.2866 0.9580
vn -0.9965 -0.0598 0.0586
vn -0.9999 0.0000 -0.0164
vn -0.9995 0.0098 0.0312
vn -0.9989 0.0000 -0.0462
vn -0.9916 0.0762 0.1043
vn -0.1918 0.8848 0.4246
vn -0.0800 0.2734 0.9586
vn -0.2824 0.0564 0.9576
vn -0.2744 0.9214 0.2753
vn -0.0016 0.0026 -1.0000
vn -0.0031 0.0003 -1.0000
vn -0.7752 0.6239 -0.0992
vn 0.0045 0.9990 0.0439
vn -0.0046 0.0478 0.9988
vn -0.0030 1.0000 0.0084
vn 0.9898 0.1379 0.0349
vn -0.9346 -0.0115 0.3554
vn 0.0001 0.0334 0.9994
vn -0.9901 0.1355 0.0372
vn 0.9328 -0.0183 0.3599
vn -0.0021 0.6937 -0.7203
vn 0.9850 0.1169 0.1266
vn 0.9978 -0.0354 -0.0557
vn 0.1823 0.8743 0.4499
vn 0.2778 0.9186 0.2809
vn 0.0016 0.0026 -1.0000
vn 0.0034 -0.0003 -1.0000
vn -0.9997 -0.0230 0.0103
vn -0.9999 0.0153 -0.0072
vn -0.0551 0.0095 0.9984
vn 0.0030 -0.2516 0.9678
vn 0.9991 -0.0420 0.0086
vn 0.9996 0.0225 -0.0165
vn -0.6946 -0.6646 0.2752
vn -0.2042 -0.1954 0.9592
vn -0.9667 -0.1758 -0.1859
vn -0.0653 -0.2788 0.9581
vn -0.0679 -0.9976 -0.0164
vn -0.9983 -0.0010 -0.0575
vn -0.2835 -0.0591 0.9571
vn -0.9982 -0.0598 -0.0036
vn 0.2845 0.0590 0.9568
vn 0.0011 0.9993 -0.0362
vn -0.0015 0.0013 -1.0000
vn -0.0031 1.0000 0.0035
vn 0.7751 0.6236 -0.1016
vn 0.9968 0.0509 0.0609
vn 0.0737 -0.9972 -0.0160
vn 0.9940 0.0004 0.1096
vn 0.1715 -0.9670 -0.1883
vn 0.9991 0.0005 -0.0417
vn 0.9986 -0.0005 -0.0529
vn 0.0769 0.2824 0.9562
vn 0.0645 -0.2760 0.9590
vn 0.0022 -0.9953 0.0970
vn -0.0193 -0.9977 0.0651
vn 0.0405 -0.0774 0.9962
vn -0.0102 -0.0007 0.9999
vn -0.0026 0.0334 0.9994
vn -0.0195 0.0102 0.9998
vn -0.1715 -0.9668 -0.1893
vn -0.0028 -0.0139 0.9999
vn 0.0050 -0.0316 0.9995
vn 0.9891 -0.1209 -0.0844
vn 0.0000 -0.9996 0.0271
vn 0.0000 -0.9997 -0.0258
vn -0.0049 -0.9987 0.0500
vn 0.9969 -0.0786 -0.0041
vn 0.0006 -0.9995 -0.0310
vn 0.2799 -0.0585 0.9582
vn 0.0010 -0.0008 -1.0000
vn 0.1829 -0.2012 0.9623
vn 0.6509 -0.7162 0.2517
vn -0.6860 0.0514 -0.7258
vn -0.9002 0.1444 -0.4108
vn -0.9045 -0.0878 0.4174
vn -0.4739 0.1268 0.8714
vn 0.0523 -0.0228 0.9984
vn 0.8482 0.2844 0.4469
vn 0.5432 -0.2863 0.7893
vn 0.4713 -0.2476 -0.8465
vn 0.8878 0.0514 -0.4574
vn 0.9831 -0.1804 -0.0317
vn -0.4064 -0.3534 -0.8426
vn 0.1657 0.2864 -0.9437
vn -0.2149 0.9766 0.0016
vn 0.2230 0.9748 0.0009
vn 0.1366 0.9883 -0.0681
vn 0.1473 0.9872 0.0620
vn 0.0172 0.9757 0.2184
vn 0.1143 0.9244 0.3639
vn -0.0757 0.9901 0.1180
vn -0.0697 0.9903 -0.1204
vn 0.0165 0.9720 -0.2342
vn 0.0618 0.9851 -0.1606
vn 0.0173 0.9814 0.1914
vn 0.0215 0.9796 0.1999
vn 0.0215 0.9947 0.1007
vn 0.0050 0.9931 0.1171
vn 0.0193 0.9748 0.2222
vn 0.0172 0.9754 0.2200
vn 0.0015 -0.0013 1.0000
vn -0.0173 -0.9998 -0.0013
vn 0.9998 -0.0173 -0.0015
vn -0.9020 -0.4317 0.0008
vn -0.9995 0.0173 0.0253
vn -0.9929 0.1164 0.0241
vn -0.9869 0.1605 0.0187
vn -0.9929 0.0171 0.1173
vn 0.9984 -0.0174 0.0540
vn 0.9934 0.1150 -0.0013
vn -0.9998 0.0173 0.0015
vn -0.2492 0.1597 -0.9552
vn 0.6215 0.0707 -0.7802
vn 0.4938 -0.0075 -0.8695
vn 0.9974 -0.0174 0.0701
vn 0.9996 0.0278 -0.0015
vn 0.5859 0.0327 0.8097
vn -0.0173 -0.9997 0.0143
vn -0.0173 -0.9998 -0.0067
vn 0.0052 -1.0000 0.0002
vn -0.0208 -0.9998 -0.0033
vn -0.0150 -0.9999 -0.0015
vn 0.8666 -0.0157 0.4987
vn 0.8651 -0.0144 -0.5014
vn -0.9977 0.0174 -0.0662
vn -0.7701 -0.4627 -0.4392
vn -0.8950 -0.4381 0.0842
vn -0.8651 0.0144 0.5013
vn 0.1641 0.9842 -0.0667
usemtl Material
s off
f 4//1 5//1 6//1
f 2//2 3//2 5//2
f 2//3 5//3 4//3
f 1//4 3//4 2//4
f 7//5 1//5 2//5
f 7//6 8//6 1//6
f 8//7 9//7 1//7
f 1//8 9//8 3//8
f 7//9 10//9 8//9
f 8//10 10//10 11//10
f 8//11 11//11 9//11
f 3//12 9//12 5//12
f 5//13 9//13 6//13
f 6//14 9//14 11//14
f 6//15 11//15 10//15
f 4//16 7//16 2//16
f 7//17 6//17 10//17
f 4//18 6//18 7//18
f 12//19 13//19 14//19
f 15//20 14//20 13//20
f 12//21 14//21 16//21
f 17//22 15//22 13//22
f 16//23 14//23 15//23
f 16//24 15//24 18//24
f 18//25 15//25 17//25
f 16//26 18//26 19//26
f 18//27 17//27 19//27
f 19//28 17//28 20//28
f 17//29 13//29 21//29
f 17//30 21//30 20//30
f 20//31 21//31 22//31
f 23//32 22//32 12//32
f 12//33 22//33 21//33
f 12//34 16//34 19//34
f 12//35 21//35 13//35
f 19//36 20//36 23//36
f 23//37 12//37 19//37
f 23//38 20//38 22//38
f 24//39 25//39 26//39
f 26//40 27//40 24//40
f 24//41 28//41 25//41
f 24//42 27//42 29//42
f 28//43 24//43 29//43
f 30//44 25//44 28//44
f 26//45 31//45 27//45
f 32//46 31//46 26//46
f 32//47 26//47 25//47
f 33//48 31//48 32//48
f 34//49 31//49 35//49
f 27//50 31//50 34//50
f 29//51 27//51 34//51
f 29//52 34//52 36//52
f 37//53 30//53 28//53
f 37//54 33//54 30//54
f 37//55 28//55 29//55
f 33//56 32//56 30//56
f 30//57 32//57 25//57
f 31//58 38//58 35//58
f 39//59 35//59 40//59
f 35//60 41//60 40//60
f 40//61 41//61 42//61
f 43//62 39//62 40//62
f 35//63 38//63 41//63
f 42//64 44//64 40//64
f 41//65 45//65 42//65
f 35//66 39//66 34//66
f 40//67 44//67 43//67
f 39//68 43//68 33//68
f 46//69 41//69 38//69
f 46//70 45//70 41//70
f 36//71 48//71 47//71
f 37//72 47//72 48//72
f 47//73 29//73 36//73
f 34//74 48//74 36//74
f 37//75 29//75 47//75
f 34//76 39//76 48//76
f 33//77 37//77 48//77
f 33//78 48//78 39//78
f 43//79 31//79 33//79
f 38//80 31//80 43//80
f 49//81 50//81 42//81
f 42//82 50//82 44//82
f 51//83 49//83 42//83
f 52//84 44//84 50//84
f 52//85 53//85 45//85
f 53//86 54//86 45//86
f 52//87 45//87 46//87
f 54//88 42//88 45//88
f 44//89 46//89 52//89
f 55//90 56//90 57//90
f 56//91 58//91 57//91
f 44//92 58//92 56//92
f 58//93 59//93 57//93
f 44//94 50//94 58//94
f 50//95 60//95 58//95
f 59//96 58//96 60//96
f 59//97 60//97 61//97
f 60//98 50//98 62//98
f 62//99 50//99 49//99
f 62//100 49//100 51//100
f 62//101 51//101 60//101
f 63//102 64//102 65//102
f 51//103 65//103 64//103
f 61//104 64//104 63//104
f 65//105 66//105 63//105
f 64//106 60//106 51//106
f 51//107 54//107 65//107
f 60//108 64//108 61//108
f 65//109 54//109 66//109
f 51//110 42//110 54//110
f 52//111 46//111 67//111
f 67//112 46//112 68//112
f 66//113 52//113 67//113
f 69//114 52//114 66//114
f 52//115 69//115 53//115
f 53//116 69//116 54//116
f 70//117 43//117 56//117
f 56//118 43//118 44//118
f 43//119 70//119 38//119
f 38//120 70//120 71//120
f 38//121 68//121 46//121
f 38//122 71//122 68//122
f 72//123 73//123 74//123
f 74//124 75//124 72//124
f 76//125 73//125 72//125
f 57//126 75//126 74//126
f 74//127 55//127 57//127
f 57//128 59//128 75//128
f 75//129 77//129 72//129
f 76//130 72//130 77//130
f 63//131 66//131 78//131
f 78//132 59//132 63//132
f 75//133 59//133 78//133
f 63//134 59//134 61//134
f 54//135 69//135 66//135
f 68//136 79//136 80//136
f 79//137 81//137 80//137
f 67//138 68//138 80//138
f 79//139 82//139 81//139
f 78//140 67//140 80//140
f 78//141 80//141 83//141
f 78//142 66//142 67//142
f 81//143 83//143 80//143
f 71//144 70//144 68//144
f 70//145 56//145 68//145
f 68//146 82//146 79//146
f 68//147 56//147 82//147
f 82//148 56//148 73//148
f 56//149 55//149 73//149
f 73//150 55//150 74//150
f 73//151 76//151 82//151
f 82//152 76//152 84//152
f 82//153 84//153 85//153
f 84//154 77//154 86//154
f 75//155 86//155 77//155
f 76//156 77//156 84//156
f 85//157 84//157 86//157
f 75//158 83//158 86//158
f 85//159 86//159 83//159
f 75//160 78//160 83//160
f 81//161 85//161 83//161
f 81//162 82//162 85//162
f 87//163 88//163 89//163
f 89//164 88//164 90//164
f 90//165 88//165 91//165
f 90//166 91//166 92//166
f 92//167 91//167 93//167
f 92//168 93//168 94//168
f 92//169 94//169 95//169
f 95//170 94//170 96//170
f 96//171 94//171 97//171
f 96//172 97//172 98//172
f 98//173 97//173 89//173
f 89//174 97//174 87//174
f 99//175 100//175 101//175
f 99//175 101//175 102//175
f 94//176 103//176 104//176
f 94//177 104//177 97//177
f 94//178 93//178 103//178
f 103//179 93//179 99//179
f 99//180 93//180 105//180
f 99//181 105//181 100//181
f 101//182 87//182 102//182
f 102//183 87//183 104//183
f 104//184 87//184 97//184
f 102//185 104//185 106//185
f 102//186 106//186 107//186
f 107//187 106//187 108//187
f 108//188 106//188 109//188
f 108//189 109//189 110//189
f 108//190 110//190 111//190
f 112//191 111//191 113//191
f 113//191 111//191 110//191
f 114//192 112//192 115//192
f 115//192 112//192 113//192
f 116//133 114//133 117//133
f 117//133 114//133 115//133
f 118//192 119//192 120//192
f 119//192 118//192 121//192
f 121//192 118//192 122//192
f 121//192 122//192 123//192
f 123//192 122//192 116//192
f 123//192 116//192 124//192
f 124//192 116//192 125//192
f 125//192 116//192 117//192
f 125//192 117//192 120//192
f 120//192 117//192 118//192
f 99//133 122//133 103//133
f 103//133 122//133 118//133
f 112//193 114//193 111//193
f 111//193 114//193 116//193
f 108//193 116//193 107//193
f 107//193 116//193 102//193
f 116//193 108//193 111//193
f 117//194 115//194 113//194
f 113//195 110//195 117//195
f 117//196 110//196 109//196
f 109//197 106//197 117//197
f 117//198 106//198 104//198
f 116//199 122//199 102//199
f 102//200 122//200 99//200
f 118//201 117//201 103//201
f 103//201 117//201 104//201
f 93//202 91//202 105//202
f 105//203 91//203 100//203
f 100//204 91//204 126//204
f 100//205 126//205 88//205
f 100//206 88//206 101//206
f 101//207 88//207 87//207
f 95//192 96//192 98//192
f 98//208 89//208 127//208
f 128//209 129//209 92//209
f 127//210 89//210 90//210
f 128//211 92//211 95//211
f 129//212 90//212 92//212
f 128//213 95//213 119//213
f 119//213 95//213 120//213
f 95//214 98//214 120//214
f 120//214 98//214 125//214
f 98//133 127//133 125//133
f 125//133 127//133 124//133
f 127//215 90//215 124//215
f 124//216 90//216 123//216
f 90//217 129//217 123//217
f 123//218 129//218 121//218
f 129//191 128//191 121//191
f 121//191 128//191 119//191
f 126//219 91//219 88//219
