# Blender v2.93.1 OBJ File: ''
# www.blender.org
mtllib longer_finger.mtl
o finger
v 0.010360 0.026403 0.000277
v 0.010449 0.002583 0.000263
v -0.010387 0.002534 0.000236
v -0.010387 0.002534 0.000236
v -0.010479 0.016102 0.033989
v -0.010401 0.026309 0.000298
v -0.010401 0.026309 0.000298
v -0.010479 0.016102 0.033989
v -0.010389 0.025220 0.034346
v 0.010449 0.002583 0.000263
v -0.008730 -0.000024 0.064735
v -0.010387 0.002534 0.000236
v 0.010401 0.025253 0.034075
v -0.010389 0.025220 0.034346
v 0.005840 0.014274 0.096308
v -0.010387 0.002534 0.000236
v -0.010401 0.026309 0.000298
v 0.010360 0.026403 0.000277
v 0.008616 0.013989 0.091877
v 0.010495 0.015103 0.033000
v 0.010401 0.025253 0.034075
v 0.010495 0.015103 0.033000
v 0.008693 -0.000133 0.089797
v 0.010449 0.002583 0.000263
v 0.008616 0.013989 0.091877
v 0.008693 -0.000133 0.089797
v 0.010495 0.015103 0.033000
v -0.008623 -0.000057 0.091205
v -0.010387 0.002534 0.000236
v -0.008730 -0.000024 0.064735
v 0.010449 0.002583 0.000263
v 0.008693 -0.000133 0.089797
v -0.008730 -0.000024 0.064735
v 0.008693 -0.000133 0.089797
v -0.005481 -0.000091 0.096167
v -0.008730 -0.000024 0.064735
v 0.010401 0.025253 0.034075
v 0.010495 0.015103 0.033000
v 0.010449 0.002583 0.000263
v 0.010401 0.025253 0.034075
v 0.010449 0.002583 0.000263
v 0.010360 0.026403 0.000277
v 0.010401 0.025253 0.034075
v 0.010360 0.026403 0.000277
v -0.010389 0.025220 0.034346
v -0.010389 0.025220 0.034346
v -0.005278 0.014293 0.096390
v 0.005840 0.014274 0.096308
v -0.007778 0.014218 0.093735
v -0.005278 0.014293 0.096390
v -0.010389 0.025220 0.034346
v -0.008623 -0.000057 0.091205
v -0.005481 -0.000091 0.096167
v -0.007778 0.014218 0.093735
v -0.010387 0.002534 0.000236
v -0.008623 -0.000057 0.091205
v -0.010479 0.016102 0.033989
v 0.010401 0.025253 0.034075
v 0.005840 0.014274 0.096308
v 0.008616 0.013989 0.091877
v 0.010360 0.026403 0.000277
v -0.010401 0.026309 0.000298
v -0.010389 0.025220 0.034346
v -0.010479 0.016102 0.033989
v -0.008841 0.013918 0.090555
v -0.010389 0.025220 0.034346
v -0.008841 0.013918 0.090555
v -0.007778 0.014218 0.093735
v -0.010389 0.025220 0.034346
v 0.005840 0.014274 0.096308
v -0.005481 -0.000091 0.096167
v 0.006138 -0.000021 0.095904
v -0.005278 0.014293 0.096390
v -0.005481 -0.000091 0.096167
v 0.005840 0.014274 0.096308
v 0.008693 -0.000133 0.089797
v 0.006138 -0.000021 0.095904
v -0.005481 -0.000091 0.096167
v 0.006138 -0.000021 0.095904
v 0.008693 -0.000133 0.089797
v 0.008616 0.013989 0.091877
v -0.005481 -0.000091 0.096167
v -0.008623 -0.000057 0.091205
v -0.008730 -0.000024 0.064735
v -0.007778 0.014218 0.093735
v -0.005481 -0.000091 0.096167
v -0.005278 0.014293 0.096390
v -0.008623 -0.000057 0.091205
v -0.008841 0.013918 0.090555
v -0.010479 0.016102 0.033989
v 0.006138 -0.000021 0.095904
v 0.008616 0.013989 0.091877
v 0.005840 0.014274 0.096308
v -0.007778 0.014218 0.093735
v -0.008841 0.013918 0.090555
v -0.008623 -0.000057 0.091205
vn 0.0013 0.0006 -1.0000
vn -1.0000 -0.0006 -0.0025
vn -1.0000 0.0099 0.0007
vn 0.0024 -0.9992 -0.0397
vn 0.0007 0.9848 0.1738
vn -0.0010 0.0026 -1.0000
vn 0.9995 0.0059 0.0320
vn 0.9985 -0.0509 0.0180
vn 0.9995 0.0007 0.0319
vn -0.8713 -0.4908 0.0029
vn 0.0363 -0.9989 -0.0296
vn -0.0037 -1.0000 -0.0018
vn 0.9999 0.0098 -0.0052
vn 1.0000 0.0037 -0.0011
vn -0.0011 0.9994 0.0340
vn 0.0029 0.9849 0.1732
vn -0.2272 0.9557 0.1870
vn -0.8442 -0.0447 0.5342
vn -0.9985 -0.0513 0.0179
vn 0.3921 0.9006 0.1876
vn -0.0045 0.9995 0.0320
vn -0.9995 0.0088 0.0293
vn -0.6849 0.7105 0.1617
vn 0.0228 -0.0278 0.9994
vn 0.0073 -0.0156 0.9999
vn 0.0065 -0.9998 0.0211
vn 0.9209 -0.0519 0.3862
vn -0.0090 -1.0000 -0.0012
vn -0.7279 -0.0003 0.6856
vn -0.9995 -0.0143 0.0284
vn 0.8475 0.0027 0.5308
vn -0.9484 -0.0001 0.3170
usemtl DefaultMaterial
s 1
f 1//1 2//1 3//1
f 4//2 5//2 6//2
f 7//3 8//3 9//3
f 10//4 11//4 12//4
f 13//5 14//5 15//5
f 16//6 17//6 18//6
f 19//7 20//7 21//7
f 22//8 23//8 24//8
f 25//9 26//9 27//9
f 28//10 29//10 30//10
f 31//11 32//11 33//11
f 34//12 35//12 36//12
f 37//13 38//13 39//13
f 40//14 41//14 42//14
f 43//15 44//15 45//15
f 46//16 47//16 48//16
f 49//17 50//17 51//17
f 52//18 53//18 54//18
f 55//19 56//19 57//19
f 58//20 59//20 60//20
f 61//21 62//21 63//21
f 64//22 65//22 66//22
f 67//23 68//23 69//23
f 70//24 71//24 72//24
f 73//25 74//25 75//25
f 76//26 77//26 78//26
f 79//27 80//27 81//27
f 82//28 83//28 84//28
f 85//29 86//29 87//29
f 88//30 89//30 90//30
f 91//31 92//31 93//31
f 94//32 95//32 96//32
