# Blender v2.93.1 OBJ File: ''
# www.blender.org
mtllib drawer_link.mtl
o drawer_link
v 0.225000 0.100000 0.200000
v -0.225000 0.100000 0.200000
v -0.275000 0.100000 0.225000
v 0.275000 0.100000 0.225000
v 0.275000 0.100000 0.200000
v 0.250000 0.100000 0.200000
v -0.275000 0.100000 0.200000
v -0.250000 0.100000 0.200000
v -0.250000 0.100000 -0.075000
v -0.225000 0.100000 -0.050000
v 0.250000 0.100000 -0.075000
v 0.225000 0.100000 -0.050000
v 0.137956 0.075304 0.225000
v 0.145000 0.073660 0.225000
v 0.130000 0.073660 0.225000
v -0.125488 0.068477 0.224999
v 0.137044 0.024696 0.225000
v -0.130000 0.073660 0.225000
v 0.130000 0.026340 0.225000
v -0.137044 0.075304 0.225000
v 0.125505 0.031484 0.224998
v 0.275000 -0.025000 0.225000
v -0.130000 0.026340 0.225000
v -0.137956 0.024696 0.225000
v -0.275000 -0.025000 0.225000
v -0.145000 0.026340 0.225000
v 0.149563 0.068374 0.224999
v 0.149256 0.030868 0.225000
v -0.149563 0.031626 0.224999
v -0.149256 0.069132 0.225000
v 0.145000 0.026340 0.225000
v -0.145000 0.073660 0.225000
v -0.125744 0.030868 0.225000
v 0.125744 0.069132 0.225000
v 0.250000 0.000000 -0.075000
v 0.250000 0.000000 0.200000
v -0.250000 0.000000 -0.075000
v -0.250000 0.000000 0.200000
v 0.275000 -0.025000 0.200000
v -0.275000 -0.025000 0.200000
v -0.150000 0.035000 0.315000
v -0.150000 0.065000 0.315000
v -0.140000 0.025000 0.315000
v -0.134400 0.025004 0.295728
v 0.133308 0.025014 0.299233
v 0.140000 0.025000 0.315000
v -0.124229 0.025016 0.308300
v 0.120728 0.025004 0.309400
v 0.150000 0.035000 0.315000
v 0.150000 0.065000 0.315000
v -0.120727 0.074994 0.309396
v -0.133308 0.074986 0.299233
v -0.140000 0.075000 0.315000
v 0.134400 0.074996 0.295728
v 0.124233 0.074986 0.308308
v 0.140000 0.075000 0.315000
v 0.140000 0.035000 0.325000
v 0.140000 0.065000 0.325000
v -0.140000 0.035000 0.325000
v -0.140000 0.065000 0.325000
v -0.124649 0.034889 0.293297
v -0.125000 0.065000 0.290000
v 0.125000 0.035000 0.290000
v 0.124608 0.065038 0.293269
v -0.115000 0.035000 0.300000
v -0.118269 0.065038 0.299608
v 0.118269 0.034962 0.299608
v 0.115000 0.065000 0.300000
v -0.225000 0.025000 0.200000
v 0.225000 0.025000 0.200000
v 0.225000 0.025000 -0.050000
v -0.225000 0.025000 -0.050000
v 0.145000 0.035000 0.323660
v 0.145000 0.065000 0.323660
v 0.148660 0.035000 0.320000
v 0.148660 0.065000 0.320000
v 0.123478 0.034934 0.295574
v 0.120574 0.065066 0.298478
v -0.120574 0.034934 0.298478
v -0.123478 0.065066 0.295574
v -0.145000 0.065000 0.323660
v -0.145000 0.035000 0.323660
v -0.148660 0.065000 0.320000
v -0.148660 0.035000 0.320000
v 0.125866 0.030091 0.293479
v 0.129358 0.026398 0.294336
v 0.125607 0.026340 0.300607
v 0.119307 0.026312 0.304586
v 0.123018 0.030000 0.298018
v 0.118117 0.029919 0.301038
v -0.118479 0.030091 0.300866
v -0.119336 0.026398 0.304358
v -0.125607 0.026340 0.300607
v -0.129586 0.026312 0.294307
v -0.123018 0.030000 0.298018
v -0.126038 0.029919 0.293117
v 0.144720 0.026328 0.316903
v 0.147965 0.029845 0.318514
v 0.143217 0.029651 0.322962
v 0.141884 0.026287 0.319603
v -0.143298 0.029971 0.323175
v -0.143313 0.026034 0.318769
v -0.147968 0.029653 0.318209
v 0.129586 0.073688 0.294307
v 0.126038 0.070081 0.293117
v 0.118479 0.069908 0.300866
v 0.119336 0.073602 0.304358
v 0.125607 0.073660 0.300607
v 0.123018 0.070000 0.298018
v -0.119307 0.073688 0.304586
v -0.118117 0.070081 0.301038
v -0.125866 0.069909 0.293479
v -0.129358 0.073602 0.294336
v -0.125607 0.073660 0.300607
v -0.123018 0.070000 0.298018
v -0.144720 0.073672 0.316903
v -0.147965 0.070155 0.318514
v -0.143217 0.070349 0.322962
v -0.141884 0.073713 0.319603
v 0.143298 0.070029 0.323175
v 0.141903 0.073672 0.319720
v 0.147968 0.070347 0.318209
v 0.144603 0.073713 0.316884
vt 0.284080 0.090909
vt 0.284080 0.909091
vt 0.280220 1.000000
vt 0.280220 0.000000
vt 0.284080 0.000000
vt 0.284080 0.045455
vt 0.284080 1.000000
vt 0.284080 0.954545
vt 0.326545 0.954545
vt 0.322684 0.909091
vt 0.326545 0.045455
vt 0.322684 0.090909
vt 0.295708 0.249172
vt 0.295455 0.236364
vt 0.299522 0.000000
vt 0.299522 1.000000
vt 0.295455 0.263636
vt 0.294654 0.728160
vt 0.287894 0.250828
vt 0.295455 0.736364
vt 0.288147 0.263636
vt 0.295708 0.749172
vt 0.288942 0.271810
vt 0.280220 0.000000
vt 0.288147 0.736364
vt 0.287894 0.750828
vt 0.280220 1.000000
vt 0.288147 0.763636
vt 0.294638 0.228067
vt 0.288847 0.228626
vt 0.288964 0.771933
vt 0.294755 0.771374
vt 0.288147 0.236364
vt 0.295455 0.763636
vt 0.288847 0.728626
vt 0.294755 0.271374
vt 0.519951 0.219780
vt 0.519951 0.439560
vt 0.484821 0.219780
vt 0.484821 0.439560
vt 0.461659 0.000000
vt 0.461659 0.909091
vt 0.446217 0.000000
vt 0.446217 0.909091
vt 0.484821 0.219780
vt 0.484821 0.000000
vt 0.519951 0.219780
vt 0.519951 0.000000
vt 0.326545 0.000000
vt 0.369009 0.000000
vt 0.326545 0.909091
vt 0.369009 0.909091
vt 0.446217 0.954545
vt 0.446217 1.000000
vt 0.430776 0.954545
vt 0.426915 1.000000
vt 0.430776 0.045455
vt 0.426915 0.000000
vt 0.446217 0.045455
vt 0.446217 0.000000
vt 0.550159 0.454545
vt 0.550159 0.227273
vt 0.554019 0.454545
vt 0.554019 0.227273
vt 0.546298 1.000000
vt 0.546298 0.000000
vt 0.550159 1.000000
vt 0.550159 0.000000
vt 0.550159 0.227273
vt 0.550159 0.000000
vt 0.554019 0.227273
vt 0.554019 0.000000
vt 0.955108 0.124222
vt 0.955108 0.025642
vt 0.980784 0.134779
vt 0.980788 0.012369
vt 0.892678 0.009536
vt 0.918386 0.014372
vt 0.898212 0.024624
vt 0.897343 0.682867
vt 0.918386 0.694605
vt 0.892678 0.702137
vt 0.894899 0.049917
vt 0.894426 0.654196
vt 0.890544 0.000221
vt 0.890491 0.078171
vt 0.864835 0.000000
vt 0.864788 0.068369
vt 0.866520 0.760583
vt 0.869437 0.789306
vt 0.864772 0.808495
vt 0.870306 0.131077
vt 0.866992 0.156314
vt 0.864772 0.115894
vt 0.890480 0.801406
vt 0.890480 0.121173
vt 0.929445 0.970872
vt 0.920876 0.970872
vt 0.929445 0.029128
vt 0.920876 0.029128
vt 0.890544 0.680454
vt 0.890490 0.758726
vt 0.871062 0.678494
vt 0.871929 0.748663
vt 0.971691 0.190137
vt 0.972612 0.289207
vt 0.953142 0.178847
vt 0.953139 0.301776
vt 0.935783 0.028688
vt 0.949175 0.078203
vt 0.935779 0.530322
vt 0.949178 0.579811
vt 0.473240 0.000000
vt 0.473240 0.818182
vt 0.461659 0.000000
vt 0.461659 0.818182
vt 0.546298 0.000000
vt 0.546298 0.199800
vt 0.519951 0.000000
vt 0.519951 0.199800
vt 0.484821 0.000000
vt 0.484821 0.818182
vt 0.473240 0.000000
vt 0.473240 0.818182
vt 0.519951 0.219780
vt 0.546298 0.219780
vt 0.519951 0.419580
vt 0.546298 0.419580
vt 0.407613 0.818182
vt 0.369009 0.818182
vt 0.407613 0.000000
vt 0.369009 0.000000
vt 0.929445 0.987689
vt 0.920876 0.987689
vt 0.929445 1.000000
vt 0.920876 1.000000
vt 0.863359 0.071671
vt 0.863407 0.003302
vt 0.973264 0.191354
vt 0.973759 0.290757
vt 0.949170 0.591476
vt 0.935769 0.538721
vt 0.935774 0.017088
vt 0.949158 0.067821
vt 0.935758 0.010150
vt 0.870384 0.744292
vt 0.920876 0.012311
vt 0.929445 0.012311
vt 0.920876 0.000000
vt 0.929445 0.000000
vt 0.953706 0.125225
vt 0.953706 0.026646
vt 0.972659 0.173208
vt 0.953070 0.158651
vt 0.972842 0.158670
vt 0.898595 0.678291
vt 0.918388 0.680233
vt 0.974704 0.161154
vt 0.896791 0.669552
vt 0.895776 0.653769
vt 0.974012 0.175060
vt 0.933541 0.531349
vt 0.931919 0.529993
vt 0.931936 0.516194
vt 0.933554 0.520624
vt 0.933554 0.011889
vt 0.931936 0.003106
vt 0.895781 0.063780
vt 0.896834 0.072000
vt 0.896791 0.048157
vt 0.898615 0.039351
vt 0.897537 0.062894
vt 0.898954 0.056170
vt 0.933541 0.002083
vt 0.897815 0.076630
vt 0.899005 0.070804
vt 0.918396 0.057320
vt 0.918388 0.037104
vt 0.918388 0.717337
vt 0.892153 0.716340
vt 0.918396 0.737553
vt 0.891700 0.732674
vt 0.892694 0.749663
vt 0.930873 0.996098
vt 0.930873 0.981555
vt 0.890544 0.724261
vt 0.891394 0.709795
vt 0.891266 0.746361
vt 0.930873 0.018371
vt 0.931919 0.022921
vt 0.931919 0.977119
vt 0.891715 0.005240
vt 0.930873 0.003902
vt 0.953070 0.144782
vt 0.954244 0.142248
vt 0.954291 0.157475
vt 0.980857 0.155494
vt 0.918388 0.000000
vt 0.890482 0.137798
vt 0.870709 0.139705
vt 0.972821 0.314155
vt 0.953070 0.314145
vt 0.972549 0.304596
vt 0.951414 0.596586
vt 0.953066 0.605241
vt 0.953048 0.618885
vt 0.867874 0.164085
vt 0.868885 0.148480
vt 0.951401 0.606489
vt 0.974012 0.306499
vt 0.974704 0.316649
vt 0.867870 0.754074
vt 0.953066 0.092152
vt 0.951414 0.087848
vt 0.870939 0.761672
vt 0.870688 0.778644
vt 0.868885 0.769874
vt 0.869630 0.755137
vt 0.868928 0.746031
vt 0.951401 0.077223
vt 0.890482 0.780928
vt 0.890482 0.818031
vt 0.864247 0.816582
vt 0.954679 0.001141
vt 0.980857 0.000000
vt 0.954163 0.010866
vt 0.919448 0.003902
vt 0.919448 0.018445
vt 0.918402 0.014564
vt 0.918402 0.022881
vt 0.863488 0.810025
vt 0.919448 0.981629
vt 0.918402 0.977079
vt 0.863487 0.108265
vt 0.919448 0.996098
vt 0.862637 0.093770
vt 0.863875 0.085169
vt 0.864243 0.101700
vt 0.890482 0.100695
vn 0.0000 1.0000 -0.0000
vn 0.0000 0.0000 1.0000
vn -0.0000 -0.0002 1.0000
vn 0.0001 0.0004 1.0000
vn 0.0000 -0.0001 1.0000
vn -0.0000 0.0001 1.0000
vn 1.0000 0.0000 0.0000
vn 0.0000 0.0000 -1.0000
vn -1.0000 0.0000 0.0000
vn 0.0000 -1.0000 0.0000
vn -1.0000 0.0000 -0.0049
vn -0.9999 0.0082 -0.0079
vn 0.0135 -0.9999 0.0037
vn -0.0109 -0.9999 0.0037
vn 0.0011 -1.0000 0.0001
vn -0.0000 -1.0000 -0.0025
vn 0.0000 -1.0000 -0.0008
vn 0.0000 -1.0000 -0.0009
vn 0.9999 -0.0082 -0.0079
vn 1.0000 0.0000 -0.0049
vn 0.0000 1.0000 -0.0009
vn -0.0009 1.0000 0.0000
vn 0.0109 0.9999 0.0037
vn -0.0135 0.9999 0.0037
vn 0.0000 1.0000 -0.0021
vn 0.9999 -0.0068 -0.0156
vn 0.9999 0.0109 -0.0069
vn -0.9999 -0.0123 -0.0071
vn -0.9998 0.0064 -0.0163
vn -0.0017 -0.0132 -0.9999
vn 0.0017 0.0132 -0.9999
vn 0.2588 0.0000 0.9659
vn 0.7071 0.0000 0.7071
vn 0.9659 0.0000 0.2588
vn -0.9646 0.0161 -0.2633
vn -0.7905 -0.0172 -0.6122
vn -0.6122 0.0172 -0.7905
vn -0.2633 -0.0161 -0.9646
vn 0.2633 0.0161 -0.9646
vn 0.6122 -0.0172 -0.7905
vn 0.7859 0.0162 -0.6182
vn 0.9646 -0.0176 -0.2633
vn -0.2588 0.0000 0.9659
vn -0.7071 0.0000 0.7071
vn -0.9659 0.0000 0.2588
vn -0.9850 -0.1726 0.0017
vn -0.7530 -0.6580 -0.0094
vn -0.7260 -0.6877 -0.0061
vn -0.2272 -0.9738 -0.0013
vn -0.3174 -0.9482 -0.0119
vn -0.6262 -0.6803 -0.3809
vn -0.1895 -0.9742 -0.1224
vn -0.2085 -0.9431 -0.2589
vn -0.1360 -0.9655 -0.2221
vn -0.5991 -0.6993 -0.3899
vn -0.3803 -0.6980 -0.6068
vn -0.3598 -0.7119 -0.6031
vn -0.9067 -0.3384 -0.2517
vn -0.8312 -0.1828 -0.5251
vn -0.5819 -0.3169 -0.7490
vn -0.5090 -0.2205 -0.8321
vn -0.0017 -0.2727 -0.9621
vn 0.0006 -0.1742 -0.9847
vn 0.0000 -0.7012 -0.7129
vn 0.0004 -0.6870 -0.7266
vn -0.0001 -0.9650 -0.2621
vn 0.0014 -0.9443 -0.3291
vn 0.3809 -0.6803 -0.6262
vn 0.1224 -0.9742 -0.1895
vn 0.2589 -0.9431 -0.2086
vn 0.2221 -0.9655 -0.1360
vn 0.3899 -0.6993 -0.5991
vn 0.6068 -0.6980 -0.3803
vn 0.6031 -0.7119 -0.3598
vn 0.2517 -0.3384 -0.9067
vn 0.5251 -0.1828 -0.8312
vn 0.7471 -0.3158 -0.5849
vn 0.8331 -0.2145 -0.5097
vn 0.9631 -0.2693 0.0004
vn 0.7118 -0.7024 -0.0067
vn 0.7287 -0.6848 -0.0046
vn 0.2616 -0.9652 -0.0020
vn 0.2023 -0.9793 -0.0059
vn 0.2023 -0.9793 -0.0033
vn 0.2705 -0.9627 0.0007
vn 0.7287 -0.6849 0.0021
vn 0.7344 -0.6787 0.0027
vn 0.9322 -0.3619 0.0089
vn 0.6774 -0.2866 0.6774
vn 0.6569 -0.3088 0.6878
vn 0.5045 -0.6981 0.5081
vn 0.4946 -0.7044 0.5091
vn 0.1942 -0.9624 0.1897
vn 0.2532 -0.2078 0.9448
vn 0.9463 -0.2007 0.2536
vn 0.0000 -0.3411 0.9400
vn 0.0003 -0.3559 0.9345
vn -0.0003 -0.7457 0.6663
vn -0.0014 -0.7063 0.7079
vn 0.0001 -0.9644 0.2645
vn 0.0000 -0.9630 0.2693
vn -0.6759 -0.2939 0.6759
vn -0.6826 -0.3100 0.6618
vn -0.5503 -0.6217 0.5574
vn -0.9450 -0.2071 0.2532
vn -0.2547 -0.1779 0.9505
vn -0.9365 -0.3507 0.0086
vn -0.7570 -0.6534 -0.0009
vn -0.6144 -0.7890 0.0085
vn -0.2272 -0.9738 0.0009
vn -0.3016 -0.9534 -0.0036
vn -0.2023 0.9793 -0.0059
vn -0.2616 0.9652 -0.0020
vn -0.7287 0.6848 -0.0046
vn -0.7118 0.7024 -0.0067
vn -0.9621 0.2727 0.0004
vn -0.3809 0.6803 -0.6262
vn -0.1224 0.9742 -0.1895
vn -0.2589 0.9431 -0.2085
vn -0.2221 0.9655 -0.1360
vn -0.3899 0.6993 -0.5991
vn -0.6068 0.6980 -0.3803
vn -0.6031 0.7119 -0.3598
vn -0.2517 0.3384 -0.9067
vn -0.5251 0.1828 -0.8312
vn -0.7490 0.3169 -0.5819
vn -0.8321 0.2205 -0.5090
vn -0.0014 0.9443 -0.3290
vn 0.0001 0.9650 -0.2621
vn -0.0004 0.6870 -0.7266
vn -0.0000 0.7012 -0.7129
vn -0.0006 0.1742 -0.9847
vn 0.0017 0.2727 -0.9621
vn 0.6262 0.6803 -0.3809
vn 0.1895 0.9742 -0.1224
vn 0.2085 0.9431 -0.2589
vn 0.1360 0.9655 -0.2221
vn 0.5991 0.6993 -0.3899
vn 0.3803 0.6980 -0.6068
vn 0.3598 0.7119 -0.6031
vn 0.9067 0.3384 -0.2517
vn 0.8312 0.1828 -0.5251
vn 0.5819 0.3169 -0.7490
vn 0.5090 0.2205 -0.8321
vn 0.3174 0.9482 -0.0119
vn 0.2272 0.9738 -0.0013
vn 0.7260 0.6877 -0.0061
vn 0.7542 0.6566 -0.0096
vn 0.9850 0.1725 0.0018
vn -0.2023 0.9793 -0.0033
vn -0.2705 0.9627 0.0007
vn -0.7287 0.6849 0.0021
vn -0.7344 0.6787 0.0027
vn -0.9322 0.3619 0.0089
vn -0.6774 0.2866 0.6774
vn -0.6569 0.3088 0.6878
vn -0.5045 0.6981 0.5081
vn -0.4946 0.7044 0.5091
vn -0.1942 0.9624 0.1897
vn -0.2532 0.2078 0.9448
vn -0.9463 0.2007 0.2536
vn 0.0000 0.3411 0.9400
vn -0.0003 0.3559 0.9345
vn 0.0002 0.6882 0.7255
vn -0.0002 0.7067 0.7076
vn 0.0000 0.9626 0.2708
vn 0.0000 0.9630 0.2693
vn 0.6759 0.2939 0.6759
vn 0.6826 0.3100 0.6618
vn 0.5065 0.6875 0.5204
vn 0.5093 0.7041 0.4948
vn 0.1897 0.9624 0.1942
vn 0.9450 0.2071 0.2532
vn 0.2547 0.1779 0.9505
vn 0.9365 0.3507 0.0086
vn 0.7570 0.6534 -0.0009
vn 0.7066 0.7076 0.0027
vn 0.2272 0.9738 0.0004
vn 0.2704 0.9627 -0.0029
usemtl Material
s off
f 1/1/1 2/2/1 3/3/1
f 4/4/1 5/5/1 6/6/1
f 7/7/1 3/3/1 8/8/1
f 8/8/1 3/3/1 2/2/1
f 8/8/1 2/2/1 9/9/1
f 9/9/1 2/2/1 10/10/1
f 9/9/1 10/10/1 11/11/1
f 11/11/1 10/10/1 12/12/1
f 11/11/1 12/12/1 6/6/1
f 6/6/1 12/12/1 1/1/1
f 6/6/1 1/1/1 4/4/1
f 4/4/1 1/1/1 3/3/1
f 13/13/2 14/14/2 4/15/2
f 13/13/2 4/15/2 3/16/2
f 13/13/2 3/16/2 15/17/2
f 16/18/3 17/19/3 18/20/3
f 18/20/2 17/19/2 19/21/2
f 18/20/2 19/21/2 20/22/2
f 20/22/4 19/21/4 21/23/4
f 22/24/2 23/25/2 24/26/2
f 22/24/2 24/26/2 25/27/2
f 25/27/2 24/26/2 26/28/2
f 14/14/5 27/29/5 4/15/5
f 4/15/2 27/29/2 22/24/2
f 22/24/2 27/29/2 28/30/2
f 26/28/6 29/31/6 25/27/6
f 25/27/2 29/31/2 3/16/2
f 3/16/2 29/31/2 30/32/2
f 28/30/2 31/33/2 22/24/2
f 22/24/2 31/33/2 17/19/2
f 30/32/2 32/34/2 3/16/2
f 3/16/2 32/34/2 20/22/2
f 17/19/2 16/18/2 33/35/2
f 17/19/2 33/35/2 22/24/2
f 22/24/2 33/35/2 23/25/2
f 20/22/2 21/23/2 34/36/2
f 20/22/2 34/36/2 3/16/2
f 3/16/2 34/36/2 15/17/2
f 11/37/7 6/38/7 35/39/7
f 35/39/7 6/38/7 36/40/7
f 9/41/8 11/42/8 37/43/8
f 37/43/8 11/42/8 35/44/8
f 8/45/9 9/46/9 38/47/9
f 38/47/9 9/46/9 37/48/9
f 38/49/10 37/50/10 36/51/10
f 36/51/10 37/50/10 35/52/10
f 6/53/8 5/54/8 36/55/8
f 36/55/8 5/54/8 39/56/8
f 36/55/8 39/56/8 38/57/8
f 38/57/8 39/56/8 40/58/8
f 38/57/8 40/58/8 8/59/8
f 8/59/8 40/58/8 7/60/8
f 25/61/9 3/62/9 40/63/9
f 40/63/9 3/62/9 7/64/9
f 22/65/10 25/66/10 39/67/10
f 39/67/10 25/66/10 40/68/10
f 4/69/7 22/70/7 5/71/7
f 5/71/7 22/70/7 39/72/7
f 41/73/11 42/74/11 29/75/11
f 29/75/12 42/74/12 30/76/12
f 43/77/13 24/78/13 44/79/13
f 45/80/14 17/81/14 46/82/14
f 43/77/15 44/79/15 47/83/15
f 43/77/16 47/83/16 48/84/16
f 43/77/17 48/84/17 46/82/17
f 46/82/18 48/84/18 45/80/18
f 28/85/19 27/86/19 49/87/19
f 49/87/20 27/86/20 50/88/20
f 51/89/21 52/90/21 53/91/21
f 54/92/22 55/93/22 56/94/22
f 52/90/23 20/95/23 53/91/23
f 54/92/24 56/94/24 13/96/24
f 56/94/25 55/93/25 53/91/25
f 53/91/21 55/93/21 51/89/21
f 57/97/2 58/98/2 59/99/2
f 59/99/2 58/98/2 60/100/2
f 33/101/26 16/102/26 61/103/26
f 61/103/27 16/102/27 62/104/27
f 63/105/28 64/106/28 21/107/28
f 21/107/29 64/106/29 34/108/29
f 65/109/30 66/110/30 67/111/30
f 67/111/31 66/110/31 68/112/31
f 2/113/8 1/114/8 69/115/8
f 69/115/8 1/114/8 70/116/8
f 71/117/9 70/118/9 12/119/9
f 12/119/9 70/118/9 1/120/9
f 12/121/2 10/122/2 71/123/2
f 71/123/2 10/122/2 72/124/2
f 72/125/7 10/126/7 69/127/7
f 69/127/7 10/126/7 2/128/7
f 72/129/1 69/130/1 71/131/1
f 71/131/1 69/130/1 70/132/1
f 58/98/32 57/97/32 73/133/32
f 58/98/32 73/133/32 74/134/32
f 74/134/33 73/133/33 75/135/33
f 74/134/33 75/135/33 76/136/33
f 76/137/34 75/138/34 49/87/34
f 76/137/34 49/87/34 50/88/34
f 64/106/35 63/105/35 77/139/35
f 64/106/36 77/139/36 78/140/36
f 78/141/37 77/142/37 67/111/37
f 78/141/38 67/111/38 68/112/38
f 66/110/39 65/109/39 79/143/39
f 66/110/40 79/143/40 80/144/40
f 80/144/41 79/143/41 61/145/41
f 80/146/42 61/103/42 62/104/42
f 59/99/43 60/100/43 81/147/43
f 59/99/43 81/147/43 82/148/43
f 82/148/44 81/147/44 83/149/44
f 82/148/44 83/149/44 84/150/44
f 84/151/45 83/152/45 42/74/45
f 84/151/45 42/74/45 41/73/45
f 63/105/46 21/107/46 85/153/46
f 85/153/47 21/107/47 19/154/47
f 85/153/48 19/154/48 86/155/48
f 86/156/49 19/157/49 17/81/49
f 86/156/50 17/81/50 45/80/50
f 85/153/51 86/155/51 87/158/51
f 86/156/52 45/80/52 87/159/52
f 87/159/53 45/80/53 48/84/53
f 87/159/54 48/84/54 88/160/54
f 85/153/55 87/158/55 89/161/55
f 89/162/56 87/163/56 88/164/56
f 89/162/57 88/164/57 90/165/57
f 63/105/58 85/153/58 77/139/58
f 77/139/59 85/153/59 89/161/59
f 77/142/60 89/162/60 67/111/60
f 67/111/61 89/162/61 90/165/61
f 65/109/62 67/111/62 90/165/62
f 65/109/63 90/165/63 91/166/63
f 91/166/64 90/165/64 88/164/64
f 91/166/65 88/164/65 92/167/65
f 92/168/66 88/160/66 48/84/66
f 92/168/67 48/84/67 47/83/67
f 91/169/68 92/168/68 93/170/68
f 92/168/69 47/83/69 93/170/69
f 93/170/70 47/83/70 44/79/70
f 93/170/71 44/79/71 94/171/71
f 91/169/72 93/170/72 95/172/72
f 95/172/73 93/170/73 94/171/73
f 95/172/74 94/171/74 96/173/74
f 65/109/75 91/166/75 79/143/75
f 79/143/76 91/166/76 95/174/76
f 79/175/77 95/172/77 61/176/77
f 61/176/78 95/172/78 96/173/78
f 33/177/79 61/176/79 96/173/79
f 33/177/80 96/173/80 94/171/80
f 33/177/81 94/171/81 23/178/81
f 23/178/82 94/171/82 44/79/82
f 23/178/83 44/79/83 24/78/83
f 46/82/84 17/81/84 31/179/84
f 46/82/85 31/179/85 97/180/85
f 97/180/86 31/179/86 28/181/86
f 97/180/87 28/181/87 98/182/87
f 98/182/88 28/181/88 49/183/88
f 75/135/89 73/133/89 98/184/89
f 98/184/90 73/133/90 99/185/90
f 98/182/91 99/186/91 97/180/91
f 97/180/92 99/186/92 100/187/92
f 97/180/93 100/187/93 46/82/93
f 73/133/94 57/97/94 99/185/94
f 49/183/95 75/188/95 98/182/95
f 57/97/96 59/99/96 101/189/96
f 57/97/97 101/189/97 99/185/97
f 99/185/98 101/189/98 102/190/98
f 99/185/99 102/190/99 100/191/99
f 100/187/100 102/192/100 43/77/100
f 100/187/101 43/77/101 46/82/101
f 82/148/102 84/150/102 101/189/102
f 101/189/103 84/150/103 103/193/103
f 101/194/104 103/195/104 102/196/104
f 84/151/105 41/73/105 103/195/105
f 59/99/106 82/148/106 101/189/106
f 41/73/107 29/75/107 103/195/107
f 103/195/108 29/75/108 26/197/108
f 103/195/109 26/197/109 102/196/109
f 102/192/110 26/198/110 24/78/110
f 102/192/111 24/78/111 43/77/111
f 54/92/112 13/96/112 15/199/112
f 54/92/113 15/199/113 104/200/113
f 104/201/114 15/202/114 34/108/114
f 104/201/115 34/108/115 105/203/115
f 105/203/116 34/108/116 64/106/116
f 106/204/117 107/205/117 108/206/117
f 107/207/118 55/93/118 108/208/118
f 108/208/119 55/93/119 54/92/119
f 108/208/120 54/92/120 104/200/120
f 106/204/121 108/206/121 109/209/121
f 109/210/122 108/211/122 104/201/122
f 109/210/123 104/201/123 105/203/123
f 68/112/124 106/204/124 78/141/124
f 78/141/125 106/204/125 109/209/125
f 78/140/126 109/210/126 64/106/126
f 64/106/127 109/210/127 105/203/127
f 51/89/128 55/93/128 107/207/128
f 51/89/129 107/207/129 110/212/129
f 110/213/130 107/205/130 106/204/130
f 110/213/131 106/204/131 111/214/131
f 111/214/132 106/204/132 68/112/132
f 111/214/133 68/112/133 66/110/133
f 112/215/134 113/216/134 114/217/134
f 113/216/135 52/90/135 114/217/135
f 114/217/136 52/90/136 51/89/136
f 114/217/137 51/89/137 110/212/137
f 112/215/138 114/217/138 115/218/138
f 115/218/139 114/217/139 110/212/139
f 115/218/140 110/212/140 111/219/140
f 62/104/141 112/215/141 80/146/141
f 80/146/142 112/215/142 115/218/142
f 80/144/143 115/220/143 66/110/143
f 66/110/144 115/220/144 111/214/144
f 20/95/145 52/90/145 113/216/145
f 20/95/146 113/216/146 18/221/146
f 18/221/147 113/216/147 112/215/147
f 18/221/148 112/215/148 16/102/148
f 16/102/149 112/215/149 62/104/149
f 53/91/150 20/95/150 32/222/150
f 53/91/151 32/222/151 116/223/151
f 116/224/152 32/225/152 30/76/152
f 116/224/153 30/76/153 117/226/153
f 117/226/154 30/76/154 42/74/154
f 83/149/155 81/147/155 117/227/155
f 117/227/156 81/147/156 118/228/156
f 117/227/157 118/228/157 116/229/157
f 116/229/158 118/228/158 119/230/158
f 116/223/159 119/231/159 53/91/159
f 81/147/160 60/100/160 118/228/160
f 42/74/161 83/152/161 117/226/161
f 60/100/162 58/98/162 120/232/162
f 60/100/163 120/232/163 118/228/163
f 118/228/164 120/232/164 121/233/164
f 118/228/165 121/233/165 119/230/165
f 119/231/166 121/234/166 56/94/166
f 119/231/167 56/94/167 53/91/167
f 74/134/168 76/136/168 120/232/168
f 120/232/169 76/136/169 122/235/169
f 120/236/170 122/237/170 121/234/170
f 121/234/171 122/237/171 123/238/171
f 121/234/172 123/238/172 56/94/172
f 76/137/173 50/88/173 122/237/173
f 58/98/174 74/134/174 120/232/174
f 50/88/175 27/86/175 122/237/175
f 122/237/176 27/86/176 14/239/176
f 122/237/177 14/239/177 123/238/177
f 123/238/178 14/239/178 13/96/178
f 123/238/179 13/96/179 56/94/179
