# Blender v2.93.1 OBJ File: ''
# www.blender.org
mtllib plank_link.mtl
o plank_link
v 0.325000 0.025000 -0.087500
v 0.325000 0.025000 0.087500
v 0.325000 0.000000 -0.087500
v 0.325000 0.000000 0.087500
v -0.325000 0.025000 -0.087500
v -0.325000 0.000000 -0.087500
v -0.325000 0.025000 0.087500
v -0.325000 0.000000 0.087500
vt 0.346154 0.000000
vt 0.346154 0.269231
vt 0.307692 0.000000
vt 0.307692 0.269231
vt 0.615385 0.000000
vt 0.615385 1.000000
vt 0.576923 0.000000
vt 0.576923 1.000000
vt 0.269231 0.269231
vt 0.269231 0.000000
vt 0.307692 0.269231
vt 0.307692 0.000000
vt 0.576923 0.000000
vt 0.576923 1.000000
vt 0.538462 0.000000
vt 0.538462 1.000000
vt 0.269231 1.000000
vt 0.000000 1.000000
vt 0.269231 0.000000
vt 0.000000 0.000000
vt 0.269231 0.000000
vt 0.538462 0.000000
vt 0.269231 1.000000
vt 0.538462 1.000000
vn 1.0000 0.0000 0.0000
vn 0.0000 0.0000 -1.0000
vn -1.0000 0.0000 0.0000
vn 0.0000 0.0000 1.0000
vn 0.0000 1.0000 0.0000
vn 0.0000 -1.0000 0.0000
usemtl Material
s off
f 1/1/1 2/2/1 3/3/1
f 3/3/1 2/2/1 4/4/1
f 5/5/2 1/6/2 6/7/2
f 6/7/2 1/6/2 3/8/2
f 7/9/3 5/10/3 8/11/3
f 8/11/3 5/10/3 6/12/3
f 2/13/4 7/14/4 4/15/4
f 4/15/4 7/14/4 8/16/4
f 5/17/5 7/18/5 1/19/5
f 1/19/5 7/18/5 2/20/5
f 8/21/6 6/22/6 4/23/6
f 4/23/6 6/22/6 3/24/6
